<svg xmlns="http://www.w3.org/2000/svg" viewBox="0 0 49.92 19.68"><defs><style>.cls-1{fill:#7bd0f4;}.cls-2{fill:#f9c800;}.cls-3{fill:#f0c200;}.cls-4{fill:#f9d716;}</style></defs><g id="レイヤー_2" data-name="レイヤー 2"><g id="レイヤー_1-2" data-name="レイヤー 1"><path class="cls-1" d="M4.2,16.94c-.19-.09-.73-.37-.48-.6s.46.15.53.54C4.25,16.91,4.23,17,4.2,16.94Z"/><path class="cls-1" d="M4.73,17.29c.14-.17.49-.61.19-.74s-.36.31-.28.7C4.65,17.28,4.69,17.32,4.73,17.29Z"/><path class="cls-1" d="M11.27,17.56a.16.16,0,1,0,.16-.16A.16.16,0,0,0,11.27,17.56Z"/><path class="cls-2" d="M13.32,18.8a.41.41,0,0,0,0-.65.13.13,0,0,1,0-.2.6.6,0,0,0,.29-.42.46.46,0,0,0-.43-.46c-.39-.07-.75.28-1,.57a.43.43,0,0,0,0,.53C12.39,18.57,12.87,19.13,13.32,18.8Z"/><path class="cls-1" d="M17.08,17.46a1.06,1.06,0,0,0-.44-.47.2.2,0,0,1-.1-.12,2.7,2.7,0,0,0-.3-.55.19.19,0,0,1,0-.12,3,3,0,0,0-.67-2c-1.31-1.73-4.71-1.95-6.36-.7a4.64,4.64,0,0,0-1.71,2.91,3.06,3.06,0,0,1-.9,1.8.9.9,0,0,1-1.47-.34c0-.16-.09-.13-.17-.1a.86.86,0,0,1-.44,0,.1.1,0,0,0-.1.1,1.69,1.69,0,0,0,1.7,1.36c1.73,0,2.37-1.71,2.62-2.21,0-.07.07-.06.1,0a.7.7,0,0,1,0,.79s-.07.06,0,.12a1.69,1.69,0,0,1,.34.4l.41,1.29s0,.05,0,.05h1.18s0,0,0,0a12.93,12.93,0,0,1-.22-1.41s0-.06.06-.07a.54.54,0,0,0,.41-.26.05.05,0,0,0,0-.08,2.44,2.44,0,0,1-.69-.28,1.33,1.33,0,0,1-.79-1.08,1.12,1.12,0,0,1,1.1-1.27,1.45,1.45,0,0,1,.69.19s0,.08,0,.08l-.17.36s0,.05-.1,0a.6.6,0,0,0-.75,0,.54.54,0,0,0-.16.61.79.79,0,0,0,1.08.23,2.25,2.25,0,0,1,2.85.6c.05.08.1.15.14.23s0,0,0,0a.58.58,0,0,0,.28-.19.05.05,0,0,0,0-.05,1.92,1.92,0,0,1,0-.22.45.45,0,0,1,0-.3.17.17,0,0,1,.23-.05.18.18,0,0,1,.08.18s0,0,0,0a.15.15,0,0,1,.19,0,.16.16,0,0,1,.05.23.44.44,0,0,1-.26.16l-.22.06,0,0a3,3,0,0,1-.27.26.06.06,0,0,0,0,.06,2.69,2.69,0,0,1-.08,1.89c0,.05,0,.05,0,.05h1.07s.05,0,.06,0a17.69,17.69,0,0,0,.77-3.07s0-.05,0,0a2.68,2.68,0,0,1,.21.37.28.28,0,0,1,0,.16.86.86,0,0,0,0,.67.93.93,0,0,0,.52.46h0l0,0A1,1,0,0,0,17.08,17.46ZM9.13,16.15c-.18.08-.29,0-.36-.17a.27.27,0,0,1,.12-.38c.17-.07.29,0,.36.18S9.3,16.08,9.13,16.15ZM12.74,16a1.24,1.24,0,0,1-.72-.19.63.63,0,0,1-.27-.57l0-1.21a.56.56,0,0,1,.37-.47,3.18,3.18,0,0,1,.78-.15,1.24,1.24,0,0,1,1,.18.64.64,0,0,1,.21.56C14,15.09,13.52,15.88,12.74,16Z"/><path class="cls-3" d="M6.31.82v2A4.26,4.26,0,0,0,3.54,1.68c-1,0-1.46.47-1.46,1.12s.21,1,1.73,1.84C5.87,5.78,6.75,6.56,6.75,8.21s-1.4,3-3.45,3a6.16,6.16,0,0,1-3.24-1V8A4.34,4.34,0,0,0,3.12,9.51c1,0,1.52-.55,1.52-1.23S4.43,7.19,2.45,6.11C1,5.31,0,4.47,0,2.87S1.33,0,3.44,0A5.3,5.3,0,0,1,6.31.82Z"/><path class="cls-3" d="M10.43.14V11.06H8.32V.14Z"/><path class="cls-3" d="M14.43.14,18,4.5,21.49.14h1.94V11.06H21.32V3.27l-3.22,4h-.29l-3.25-4v7.79H12.48V.14Z"/><path class="cls-3" d="M29.41.14c2.35,0,3.76,1.19,3.76,3.21s-1.36,3.18-3.84,3.18H27.6v4.53H25.49V.14ZM27.6,4.91H29c1.55,0,2-.62,2-1.58S30.48,1.74,29,1.74H27.6Z"/><path class="cls-3" d="M36.61.14V9.25h4.93v1.81H34.48V.14Z"/><path class="cls-3" d="M49.78.14V1.79H45.1v2.9h4.5V6.34H45.1V9.4h4.82v1.66H43V.14Z"/><path class="cls-4" d="M20.4,13.46v2.38h3V13.46h1.55V19.6H23.37V17.13h-3V19.6H18.85V13.46Z"/><path class="cls-4" d="M33,16.53a3.13,3.13,0,0,1-3.42,3.15,3.16,3.16,0,1,1,0-6.3A3.13,3.13,0,0,1,33,16.53Zm-5.23,0a1.82,1.82,0,1,0,1.81-1.81A1.71,1.71,0,0,0,27.73,16.54Z"/><path class="cls-4" d="M35.73,13.46V19.6H34.18V13.46Z"/><path class="cls-4" d="M38.77,13.46v2.83l2.32-2.83h1.73l-2.39,2.88,2.84,3.26H41.34l-2.57-3v3H37.22V13.46Z"/><path class="cls-4" d="M45.38,13.46v3.33a1.39,1.39,0,0,0,1.51,1.58c.94,0,1.48-.49,1.48-1.56V13.46h1.55v3.39c0,1.83-1.12,2.83-3,2.83s-3.06-1.06-3.06-2.81V13.46Z"/></g></g></svg>